<svg xmlns="http://www.w3.org/2000/svg" viewBox="0 0 256 256" width="256" height="256">
  <rect width="256" height="256" rx="48" fill="#00B8D4"/>
  <g transform="translate(128, 132) scale(5.5) translate(-12, -12)" fill="none" stroke="#FFC107" stroke-width="2.2" stroke-linecap="round" stroke-linejoin="round">
    <path d="M21.42 10.922a1 1 0 0 0-.019-1.838L12.83 5.18a2 2 0 0 0-1.66 0L2.6 9.08a1 1 0 0 0 0 1.832l8.57 3.908a2 2 0 0 0 1.66 0z"/>
    <path d="M22 10v6"/>
    <path d="M6 12.5V16a6 3 0 0 0 12 0v-3.5"/>
  </g>
</svg>
